<svg width="7" height="24" viewBox="0 0 7 24" fill="none" xmlns="http://www.w3.org/2000/svg">
<path d="M3.01153 22.5566C3.01153 22.818 3.22339 23.0299 3.48474 23.0299C3.74609 23.0299 3.95796 22.818 3.95796 22.5566L3.01153 22.5566ZM3.81936 0.138693C3.63455 -0.0461082 3.33493 -0.0461083 3.15013 0.138693L0.138612 3.15021C-0.0461899 3.33501 -0.0461899 3.63464 0.138612 3.81944C0.323413 4.00424 0.623036 4.00424 0.807838 3.81944L3.48474 1.14253L6.16165 3.81944C6.34645 4.00424 6.64607 4.00424 6.83087 3.81944C7.01567 3.63464 7.01567 3.33501 6.83087 3.15021L3.81936 0.138693ZM3.95796 22.5566L3.95796 0.473307L3.01153 0.473307L3.01153 22.5566L3.95796 22.5566Z" fill="url(#paint0_linear_203_38)"/>
<defs>
<linearGradient id="paint0_linear_203_38" x1="4.13881" y1="0.473306" x2="12.5301" y2="8.24637" gradientUnits="userSpaceOnUse">
<stop stop-color="#237249"/>
<stop offset="1" stop-color="#35C66B"/>
</linearGradient>
</defs>
</svg>
