<svg width="25" height="8" viewBox="0 0 25 8" fill="none" xmlns="http://www.w3.org/2000/svg">
<path d="M0.495728 3.1549C0.22194 3.1549 -9.14931e-06 3.37685 -9.14931e-06 3.65063C-9.14931e-06 3.92442 0.22194 4.14637 0.495728 4.14637V3.1549ZM23.9806 4.00117C24.1742 3.80758 24.1742 3.49369 23.9806 3.3001L20.8258 0.145247C20.6322 -0.0483501 20.3183 -0.0483501 20.1247 0.145247C19.9311 0.338844 19.9311 0.652727 20.1247 0.846325L22.929 3.65063L20.1247 6.45494C19.9311 6.64854 19.9311 6.96243 20.1247 7.15602C20.3183 7.34962 20.6322 7.34962 20.8258 7.15602L23.9806 4.00117ZM0.495728 4.14637H23.6301V3.1549H0.495728V4.14637Z" fill="url(#paint0_linear_201_153)"/>
<defs>
<linearGradient id="paint0_linear_201_153" x1="23.6301" y1="4.3047" x2="15.8929" y2="13.0548" gradientUnits="userSpaceOnUse">
<stop stop-color="#237249"/>
<stop offset="1" stop-color="#35C66B"/>
</linearGradient>
</defs>
</svg>
