<svg width="25" height="8" viewBox="0 0 25 8" fill="none" xmlns="http://www.w3.org/2000/svg">
<path d="M23.6301 3.1549C23.9039 3.1549 24.1259 3.37685 24.1259 3.65063C24.1259 3.92442 23.9039 4.14637 23.6301 4.14637V3.1549ZM0.14521 4.00117C-0.0483875 3.80758 -0.0483875 3.49369 0.14521 3.3001L3.30006 0.145247C3.49366 -0.0483501 3.80754 -0.0483501 4.00114 0.145247C4.19473 0.338844 4.19473 0.652727 4.00114 0.846325L1.19683 3.65063L4.00114 6.45494C4.19473 6.64854 4.19473 6.96243 4.00114 7.15602C3.80754 7.34962 3.49366 7.34962 3.30006 7.15602L0.14521 4.00117ZM23.6301 4.14637H0.495749V3.1549H23.6301V4.14637Z" fill="url(#paint0_linear_201_243)"/>
<defs>
<linearGradient id="paint0_linear_201_243" x1="0.495747" y1="4.3047" x2="8.23296" y2="13.0548" gradientUnits="userSpaceOnUse">
<stop stop-color="#237249"/>
<stop offset="1" stop-color="#35C66B"/>
</linearGradient>
</defs>
</svg>
