<svg width="114" height="18" viewBox="0 0 114 18" fill="none" xmlns="http://www.w3.org/2000/svg">
<path d="M6.95502 17.3081C5.69314 17.3081 4.47527 17.1541 3.30143 16.8459C2.14226 16.5231 1.19585 16.1123 0.462201 15.6134L1.89282 12.4C2.58245 12.8402 3.3748 13.207 4.26985 13.5005C5.17958 13.7793 6.08197 13.9187 6.97703 13.9187C7.57862 13.9187 8.06283 13.8673 8.42966 13.7646C8.79648 13.6472 9.0606 13.5005 9.222 13.3244C9.39808 13.1337 9.48612 12.9136 9.48612 12.6641C9.48612 12.312 9.32471 12.0332 9.00191 11.8278C8.6791 11.6223 8.26092 11.4536 7.74736 11.3215C7.23381 11.1895 6.66156 11.0574 6.03062 10.9254C5.41435 10.7933 4.79075 10.6246 4.1598 10.4191C3.54354 10.2137 2.97863 9.94961 2.46507 9.6268C1.95151 9.28932 1.53333 8.85647 1.21053 8.32824C0.887718 7.78534 0.726315 7.10304 0.726315 6.28135C0.726315 5.35695 0.975757 4.52059 1.47464 3.77226C1.9882 3.02394 2.75119 2.42234 3.76363 1.96748C4.77607 1.51261 6.03795 1.28518 7.54928 1.28518C8.56171 1.28518 9.55214 1.40257 10.5206 1.63734C11.5037 1.85743 12.3767 2.18757 13.1397 2.62776L11.7971 5.86317C11.0635 5.467 10.3372 5.17354 9.61817 4.98279C8.89919 4.77736 8.20223 4.67465 7.52727 4.67465C6.92567 4.67465 6.44146 4.74068 6.07464 4.87274C5.70781 4.99012 5.4437 5.15153 5.28229 5.35695C5.12089 5.56237 5.04019 5.79714 5.04019 6.06125C5.04019 6.39873 5.19425 6.67018 5.50239 6.87561C5.82519 7.06636 6.24338 7.22776 6.75693 7.35982C7.28516 7.4772 7.85741 7.60192 8.47368 7.73398C9.10462 7.86604 9.72822 8.03478 10.3445 8.2402C10.9754 8.43095 11.5477 8.69506 12.0612 9.03254C12.5748 9.35535 12.9856 9.7882 13.2938 10.3311C13.6166 10.8593 13.778 11.527 13.778 12.334C13.778 13.229 13.5212 14.0581 13.0076 14.8211C12.5088 15.5694 11.7531 16.171 10.7407 16.6258C9.74289 17.0807 8.48101 17.3081 6.95502 17.3081ZM20.2589 17.1981C18.7329 17.1981 17.5444 16.8239 16.6934 16.0756C15.8423 15.3126 15.4168 14.1681 15.4168 12.6421V2.40767H19.5986V12.5981C19.5986 13.0236 19.716 13.3611 19.9508 13.6105C20.1856 13.8453 20.4864 13.9627 20.8532 13.9627C21.3521 13.9627 21.7776 13.838 22.1297 13.5885L23.1642 16.5158C22.812 16.7506 22.3792 16.9193 21.8656 17.022C21.3521 17.1394 20.8165 17.1981 20.2589 17.1981ZM13.6781 8.63637V5.51102H22.3278V8.63637H13.6781ZM31.4016 17V14.777L31.1155 14.2268V10.133C31.1155 9.47273 30.9101 8.96651 30.4992 8.61436C30.103 8.24754 29.4648 8.06412 28.5844 8.06412C28.0121 8.06412 27.4326 8.1595 26.8456 8.35025C26.2587 8.52632 25.7598 8.77577 25.349 9.09857L23.9404 6.25934C24.6153 5.81915 25.4223 5.48167 26.3614 5.2469C27.3152 4.99746 28.2616 4.87274 29.2007 4.87274C31.1375 4.87274 32.6341 5.32027 33.6906 6.21532C34.7617 7.0957 35.2973 8.4823 35.2973 10.3751V17H31.4016ZM27.8801 17.1981C26.9263 17.1981 26.1193 17.0367 25.459 16.7139C24.7987 16.3911 24.2925 15.9509 23.9404 15.3933C23.6029 14.8357 23.4342 14.2121 23.4342 13.5225C23.4342 12.7888 23.6176 12.1579 23.9844 11.6297C24.3659 11.0868 24.9455 10.6759 25.7231 10.3971C26.5008 10.1037 27.5059 9.95694 28.7385 9.95694H31.5557V12.1359H29.3107C28.6357 12.1359 28.1589 12.2459 27.8801 12.466C27.616 12.6861 27.4839 12.9796 27.4839 13.3464C27.4839 13.7132 27.6233 14.0067 27.9021 14.2268C28.1809 14.4469 28.5624 14.5569 29.0466 14.5569C29.5015 14.5569 29.9123 14.4469 30.2791 14.2268C30.6606 13.992 30.9394 13.6399 31.1155 13.1703L31.6877 14.711C31.4676 15.5327 31.0348 16.1563 30.3892 16.5818C29.7582 16.9927 28.9219 17.1981 27.8801 17.1981ZM37.2766 17V5.07082H41.2603V8.54833L40.6661 7.5579C41.0182 6.66285 41.5905 5.99523 42.3828 5.55503C43.1752 5.10017 44.1362 4.87274 45.2661 4.87274V8.63637C45.0753 8.60703 44.9066 8.59235 44.7599 8.59235C44.6278 8.57768 44.4811 8.57034 44.3197 8.57034C43.4686 8.57034 42.779 8.80511 42.2508 9.27465C41.7225 9.72951 41.4584 10.4778 41.4584 11.5196V17H37.2766ZM46.5081 17V1.59332H54.3875C56.4124 1.59332 57.9237 1.96748 58.9215 2.7158C59.9192 3.44945 60.4181 4.41787 60.4181 5.62106C60.4181 6.41341 60.2053 7.11038 59.7798 7.71197C59.369 8.29889 58.7821 8.76843 58.0191 9.12058C57.2707 9.45806 56.3757 9.6268 55.3339 9.6268L55.7741 8.57034C56.8599 8.57034 57.8063 8.73908 58.6133 9.07656C59.4203 9.39937 60.0439 9.87624 60.4841 10.5072C60.939 11.1235 61.1664 11.8791 61.1664 12.7742C61.1664 14.1094 60.6235 15.1512 59.5377 15.8995C58.4666 16.6332 56.8966 17 54.8277 17H46.5081ZM50.8219 13.8526H54.4755C55.2238 13.8526 55.7888 13.7279 56.1703 13.4785C56.5664 13.2144 56.7645 12.8182 56.7645 12.29C56.7645 11.7617 56.5664 11.3729 56.1703 11.1235C55.7888 10.8593 55.2238 10.7273 54.4755 10.7273H50.5138V7.71197H53.8152C54.5489 7.71197 55.0991 7.58725 55.466 7.33781C55.8328 7.08837 56.0162 6.7142 56.0162 6.21532C56.0162 5.71644 55.8328 5.34961 55.466 5.11484C55.0991 4.8654 54.5489 4.74068 53.8152 4.74068H50.8219V13.8526ZM67.5834 17.1981C66.615 17.1981 65.7419 17.0073 64.9643 16.6258C64.2013 16.2443 63.5997 15.6501 63.1595 14.8431C62.734 14.0214 62.5212 12.9869 62.5212 11.7397V5.07082H66.703V11.0574C66.703 11.9818 66.8718 12.6421 67.2092 13.0383C67.5614 13.4345 68.0529 13.6325 68.6839 13.6325C69.0947 13.6325 69.4689 13.5372 69.8064 13.3464C70.1439 13.1557 70.4153 12.8549 70.6207 12.444C70.8262 12.0185 70.9289 11.4756 70.9289 10.8153V5.07082H75.1107V17H71.1269V13.6325L71.8973 14.5789C71.4864 15.4593 70.8922 16.1196 70.1145 16.5598C69.3368 16.9853 68.4931 17.1981 67.5834 17.1981ZM83.2406 17.1981C81.9201 17.1981 80.7389 16.934 79.6971 16.4057C78.67 15.8775 77.863 15.1512 77.276 14.2268C76.6891 13.2877 76.3957 12.2166 76.3957 11.0134C76.3957 9.81021 76.6891 8.74642 77.276 7.82202C77.863 6.89762 78.67 6.17864 79.6971 5.66508C80.7389 5.13685 81.9201 4.87274 83.2406 4.87274C84.5905 4.87274 85.7571 5.15886 86.7401 5.73111C87.7232 6.30336 88.4202 7.11038 88.8311 8.15216L85.5956 9.80288C85.3169 9.2453 84.972 8.84179 84.5612 8.59235C84.1504 8.32824 83.7028 8.19618 83.2186 8.19618C82.7344 8.19618 82.2942 8.30623 81.898 8.52632C81.5019 8.74642 81.1864 9.06923 80.9516 9.49474C80.7315 9.90559 80.6215 10.4118 80.6215 11.0134C80.6215 11.6297 80.7315 12.1506 80.9516 12.5761C81.1864 13.0016 81.5019 13.3244 81.898 13.5445C82.2942 13.7646 82.7344 13.8746 83.2186 13.8746C83.7028 13.8746 84.1504 13.7499 84.5612 13.5005C84.972 13.2364 85.3169 12.8255 85.5956 12.2679L88.8311 13.9187C88.4202 14.9604 87.7232 15.7675 86.7401 16.3397C85.7571 16.912 84.5905 17.1981 83.2406 17.1981ZM93.1798 14.799L93.2899 9.80288L98.154 5.07082H103.106L97.7138 10.6392L95.5789 12.356L93.1798 14.799ZM89.7023 17V0.668914H93.8841V17H89.7023ZM98.4621 17L94.8085 12.422L97.4057 9.20862L103.524 17H98.4621ZM108.058 17.1981C107.046 17.1981 106.055 17.0807 105.087 16.8459C104.133 16.6112 103.363 16.3177 102.776 15.9656L104.03 13.1043C104.588 13.4418 105.241 13.7132 105.989 13.9187C106.738 14.1094 107.471 14.2048 108.19 14.2048C108.894 14.2048 109.379 14.1314 109.643 13.9847C109.922 13.838 110.061 13.6399 110.061 13.3904C110.061 13.1557 109.929 12.9869 109.665 12.8842C109.415 12.7668 109.078 12.6788 108.652 12.6201C108.242 12.5614 107.787 12.4954 107.288 12.422C106.789 12.3486 106.283 12.2533 105.769 12.1359C105.27 12.0038 104.808 11.8131 104.383 11.5636C103.972 11.2995 103.642 10.9474 103.392 10.5072C103.143 10.067 103.018 9.50942 103.018 8.83446C103.018 8.07146 103.238 7.3965 103.678 6.80958C104.133 6.20798 104.793 5.73845 105.659 5.40097C106.525 5.04882 107.581 4.87274 108.828 4.87274C109.665 4.87274 110.509 4.96078 111.36 5.13685C112.225 5.29826 112.952 5.5477 113.538 5.88518L112.284 8.72441C111.697 8.38693 111.11 8.1595 110.523 8.04211C109.936 7.91006 109.379 7.84403 108.85 7.84403C108.146 7.84403 107.647 7.92473 107.354 8.08613C107.075 8.24754 106.936 8.44562 106.936 8.68039C106.936 8.91516 107.06 9.09857 107.31 9.23063C107.559 9.34801 107.889 9.44339 108.3 9.51675C108.726 9.57545 109.188 9.64147 109.687 9.71484C110.186 9.77353 110.685 9.86891 111.183 10.001C111.697 10.133 112.159 10.3311 112.57 10.5952C112.996 10.8447 113.333 11.1895 113.583 11.6297C113.832 12.0552 113.957 12.6054 113.957 13.2804C113.957 14.014 113.729 14.6743 113.274 15.2612C112.834 15.8482 112.174 16.3177 111.294 16.6699C110.428 17.022 109.349 17.1981 108.058 17.1981Z" fill="url(#paint0_linear_201_9)"/>
<defs>
<linearGradient id="paint0_linear_201_9" x1="114" y1="4.32558" x2="31.6197" y2="49.1963" gradientUnits="userSpaceOnUse">
<stop stop-color="#237249"/>
<stop offset="1" stop-color="#35C66B"/>
</linearGradient>
</defs>
</svg>
